# xmcd
#
# Track frame offsets: 
#        150
#        25749
#        38582
#        56356
#        77321
#        92391
#        109280
#        126418
#        147912
#        160354
#        178860
#        196903
#        211578
#        230013
#        244751
#
# Disc length: 3400 seconds
#
# Revision: 2
# Processed by: cddbd v1.5.2PL0 Copyright (c) Steve Scherf et al.
# Submitted via: ExactAudioCopy v1.0b3
#
DISCID=be0d460f
DTITLE=Группа «Лесоповал»  - Лесоповал 3
DYEAR=2003
DGENRE=Chanson
TTITLE0=Развод
TTITLE1=Трое
TTITLE2=Картишки
TTITLE3=Первая девочка
TTITLE4=Налог
TTITLE5=Бля
TTITLE6=Стамбул
TTITLE7=Не думай
TTITLE8=Посылочки
TTITLE9=Воровской закон
TTITLE10=Молитва
TTITLE11=Побег
TTITLE12=Шалава
TTITLE13=Скоро мне выходить
TTITLE14=Батюшка (Bonus)
EXTD=
EXTT0=
EXTT1=
EXTT2=
EXTT3=
EXTT4=
EXTT5=
EXTT6=
EXTT7=
EXTT8=
EXTT9=
EXTT10=
EXTT11=
EXTT12=
EXTT13=
EXTT14=
PLAYORDER=
